<?xml version="1.0" encoding="UTF-8" standalone="no"?><!DOCTYPE svg PUBLIC "-//W3C//DTD SVG 1.1//EN" "http://www.w3.org/Graphics/SVG/1.1/DTD/svg11.dtd"><svg width="100%" height="100%" viewBox="0 0 663 109" version="1.1" xmlns="http://www.w3.org/2000/svg" xmlns:xlink="http://www.w3.org/1999/xlink" xml:space="preserve" xmlns:serif="http://www.serif.com/" style="fill-rule:evenodd;clip-rule:evenodd;stroke-linejoin:round;stroke-miterlimit:2;"><path d="M9.673,88.688c-5.455,-0.001 -9.673,-4.098 -9.673,-8.943l0,-69.682c0,-5.092 4.466,-8.944 9.673,-8.944l20.959,0c18.598,0 27.899,11.926 27.899,24.344c-0,8.696 -5.579,14.034 -13.019,17.639c7.687,3.102 15.376,8.695 15.376,19.496c0,14.537 -11.658,26.091 -30.752,26.091l-20.463,-0l-0,-0.001Zm21.949,-53.288c4.341,-0 9.547,-2.982 9.547,-9.689c0,-4.716 -2.232,-8.942 -8.68,-8.942l-15.127,0l-0,18.631l14.26,0l-0,-0Zm-14.26,15.899l-0,21.609l13.887,0c8.185,0 12.279,-4.095 12.279,-10.559c-0,-7.08 -4.959,-11.05 -11.534,-11.05l-14.632,0Z" style="fill-rule:nonzero;"/><path d="M135.278,88.688l-32.861,-0.001c-6.076,0.001 -11.529,-2.112 -11.529,-8.818l-0,-69.931c-0,-4.346 4.089,-8.819 9.548,-8.819l33.602,-0c4.715,-0 8.681,3.727 8.681,8.073c0,4.474 -3.966,7.702 -8.681,7.702l-25.79,-0l-0,19.997l23.437,-0c4.338,-0 8.556,3.352 8.556,7.826c0,4.469 -3.722,7.949 -8.556,7.949l-23.437,-0l-0,20.242l27.03,-0c4.59,-0 8.682,3.48 8.682,7.706c-0,4.474 -3.966,8.073 -8.682,8.073Z" style="fill-rule:nonzero;"/><path d="M210.418,59.497c-0,18.876 -6.695,30.308 -28.766,30.308c-4.715,0 -14.264,-0.496 -14.264,-8.57c0,-4.97 4.59,-7.831 8.061,-7.831c2.853,-0 4.466,0.747 7.564,0.747c8.306,-0 10.045,-5.589 10.045,-14.655l-0,-51.548c-0.001,-4.344 3.72,-7.948 8.681,-7.948c4.585,-0 8.679,3.728 8.679,7.948l-0,51.549Z" style="fill-rule:nonzero;"/><path d="M414.142,81.98c0,4.222 -3.972,7.825 -8.558,7.825c-4.71,0 -8.804,-3.603 -8.804,-7.825l-0,-42.733l-14.135,27.825c-1.613,3.226 -4.715,4.717 -8.184,4.717c-3.35,0 -6.448,-1.491 -8.061,-4.717l-14.135,-27.825l0,42.733c0,4.223 -4.095,7.826 -8.928,7.826c-4.715,-0 -8.432,-3.603 -8.432,-7.826l-0,-73.782c-0,-4.718 3.841,-8.197 8.928,-8.197c3.966,0 7.067,1.615 8.68,4.846l22.071,43.843l22.072,-43.967c1.738,-3.604 5.082,-4.723 8.556,-4.723c5.083,-0 8.93,3.728 8.93,8.197l0,73.783Z" style="fill-rule:nonzero;"/><path d="M512.092,79.123l-24.179,-70.677c-1.738,-4.966 -4.221,-8.446 -10.171,-8.446c-5.95,0 -8.429,3.604 -10.046,8.446l-24.179,70.676c-0.246,0.622 -0.367,2.114 -0.367,2.735c0,4.718 4.088,7.949 8.925,7.949c2.975,0 6.946,-2.237 8.183,-5.836c0,0 16.988,-56.271 17.484,-60.121c0.495,3.85 17.362,60.121 17.362,60.121c1.242,3.476 5.204,5.836 8.429,5.836c5.088,0 8.934,-3.231 8.934,-7.949c-0,-0.621 -0.125,-2.112 -0.375,-2.734Z" style="fill-rule:nonzero;"/><path d="M306.641,79.123l-24.18,-70.677c-1.738,-4.966 -4.218,-8.446 -10.168,-8.446c-5.952,0 -8.434,3.604 -10.048,8.446l-24.179,70.676c-0.249,0.622 -0.368,2.114 -0.368,2.735c-0,4.718 4.089,7.949 8.924,7.949c2.978,0 6.947,-2.237 8.184,-5.836c0,0 16.989,-56.271 17.487,-60.121c0.495,3.85 17.36,60.121 17.36,60.121c1.24,3.476 5.205,5.836 8.43,5.836c5.083,0 8.929,-3.231 8.929,-7.949c0.001,-0.621 -0.122,-2.112 -0.371,-2.734Z" style="fill-rule:nonzero;"/><path d="M574.208,54.897c-2.604,-1.114 -5.7,-2.231 -9.05,-3.349c-12.15,-3.729 -25.3,-7.826 -25.3,-25.837c0,-16.022 11.163,-25.711 28.775,-25.711c7.313,0 24.917,1.864 24.917,11.181c0,4.097 -3.221,7.825 -8.675,7.825c-2.233,-0 -3.971,-0.746 -6.079,-1.367c-2.354,-0.871 -5.084,-1.864 -9.421,-1.864c-6.079,0 -11.783,2.113 -11.783,9.439c-0,5.463 3.104,7.328 5.208,8.322c3.225,1.615 6.204,2.609 8.929,3.355c12.154,3.849 25.421,8.074 25.421,25.706c0,17.272 -13.142,27.209 -30.879,27.209c-9.175,0 -26.538,-3.231 -26.538,-11.931c0,-3.972 3.6,-7.825 8.188,-7.825c1.858,0 3.846,0.621 6.2,1.493c2.975,0.994 6.946,2.485 12.275,2.485c8.558,0 12.896,-3.853 12.896,-10.684c-0,-5.589 -2.85,-7.452 -5.084,-8.447Z" style="fill-rule:nonzero;"/><path d="M653.942,89.293c4.346,-0.001 8.558,3.476 8.558,7.949c0,4.47 -3.717,7.824 -8.558,7.824l-33.021,0c-4.834,0 -8.558,-3.354 -8.558,-7.824c-0,-4.473 4.22,-7.95 8.558,-7.95l33.021,0.001Z" style="fill-rule:nonzero;"/></svg>